<svg xmlns="http://www.w3.org/2000/svg" version="1.1" viewBox="-5.0 -10.0 110.0 135.0">
 <path d="m87.891 23.129v-3.75h2.4258c1.7148 0 3.1133-1.3984 3.1133-3.1133v-2.125c0-1.7148-1.3984-3.1133-3.1133-3.1133h-2.4258v-3.75c0-1.2695-1.0352-2.3047-2.3047-2.3047h-4.1484c-1.082 0-1.9883 0.75391-2.2344 1.7617l-58.406 0.003906c-0.24609-1.0078-1.1523-1.7617-2.2344-1.7617h-4.1484c-1.2695 0-2.3047 1.0352-2.3047 2.3047v3.75h-2.4219c-1.7148 0-3.1133 1.3984-3.1133 3.1133v2.125c0 1.7148 1.3984 3.1133 3.1133 3.1133h2.4219v3.75c0 1.2695 1.0352 2.3047 2.3047 2.3047h4.1367v31.215c0 0.39844 0.20312 0.76562 0.53516 0.98438l4.1719 2.6992-4.1719 2.6992c-0.33203 0.21484-0.53516 0.58594-0.53516 0.98438v10.543h-4.1367c-1.2695 0-2.3047 1.0352-2.3047 2.3047v3.75h-2.4219c-1.7148 0-3.1133 1.3984-3.1133 3.1133v2.125c0 1.7148 1.3984 3.1133 3.1133 3.1133h2.4219v3.75c0 1.2695 1.0352 2.3047 2.3047 2.3047h4.1484c1.082 0 1.9883-0.75391 2.2344-1.7617h58.402c0.24609 1.0078 1.1523 1.7617 2.2344 1.7617h4.1484c1.2695 0 2.3047-1.0352 2.3047-2.3047v-3.75h2.4258c1.7148 0 3.1133-1.3984 3.1133-3.1133v-2.125c0-1.7148-1.3984-3.1133-3.1133-3.1133h-2.4258v-3.75c0-1.2695-1.0352-2.3047-2.3047-2.3047h-4.1328v-29.469c0-0.39844-0.20312-0.76562-0.53516-0.98438l-4.5547-2.9492 4.5547-2.9492c0.33203-0.21484 0.53516-0.58594 0.53516-0.98438v-11.793h4.1328c1.2695 0 2.3047-1.0352 2.3047-2.3047zm2.4258-9.7539c0.42578 0 0.76953 0.34375 0.76953 0.76953v2.125c0 0.42578-0.34375 0.76953-0.76953 0.76953h-2.4258v-3.6641zm-80.633 3.6641c-0.42578 0-0.76953-0.34375-0.76953-0.76953v-2.125c0-0.42578 0.34375-0.76953 0.76953-0.76953h2.4219v3.6641zm0 69.586c-0.42578 0-0.76953-0.34375-0.76953-0.76953v-2.125c0-0.42578 0.34375-0.76953 0.76953-0.76953h2.4219v3.6641zm80.633-3.6641c0.42578 0 0.76953 0.34375 0.76953 0.76953v2.125c0 0.42578-0.34375 0.76953-0.76953 0.76953h-2.4258v-3.6641zm-4.7695-75.68 0.039063 15.809h-4.1133l-0.039062-15.773 4.1133-0.039062zm-64.68 14.047v-12.246h58.262v12.246zm-2.3438-14.047 0.039062 15.809h-4.1133l-0.039063-15.773 4.1133-0.039062zm60.605 71.391v12.246h-58.262v-12.246zm-64.68 14.008-0.039063-15.773 4.1133-0.039062 0.039062 15.809h-4.1133zm71.137 0h-4.1133l-0.039062-15.773 4.1133-0.039062 0.039063 15.809zm-12.02-52.5c-0.33203 0.21484-0.53516 0.58594-0.53516 0.98437 0 0.39844 0.20312 0.76563 0.53516 0.98438l5.5391 3.5898v30.594h-58.215v-11.672l5.1562-3.3398c0.33203-0.21484 0.53516-0.58594 0.53516-0.98437 0-0.39844-0.20312-0.76563-0.53516-0.98438l-5.1562-3.3359v-32.344h58.215v12.918l-5.5391 3.5859zm-5.0195-9.2969c0 0.64844-0.52344 1.1719-1.1719 1.1719h-34.75c-0.64844 0-1.1719-0.52344-1.1719-1.1719 0-0.64844 0.52344-1.1719 1.1719-1.1719h34.75c0.64844 0 1.1719 0.52344 1.1719 1.1719zm-37.094 9.543c0-0.64844 0.52344-1.1719 1.1719-1.1719h25.836c0.64844 0 1.1719 0.52344 1.1719 1.1719 0 0.64844-0.52344 1.1719-1.1719 1.1719h-25.836c-0.64844 0-1.1719-0.52344-1.1719-1.1719zm37.094 9.5469c0 0.64844-0.52344 1.1719-1.1719 1.1719h-34.75c-0.64844 0-1.1719-0.52344-1.1719-1.1719 0-0.64844 0.52344-1.1719 1.1719-1.1719h34.75c0.64844 0 1.1719 0.52344 1.1719 1.1719zm-37.094 9.5469c0-0.64844 0.52344-1.1719 1.1719-1.1719h25.836c0.64844 0 1.1719 0.52344 1.1719 1.1719 0 0.64844-0.52344 1.1719-1.1719 1.1719h-25.836c-0.64844 0-1.1719-0.52344-1.1719-1.1719zm37.094 9.543c0 0.64844-0.52344 1.1719-1.1719 1.1719h-34.75c-0.64844 0-1.1719-0.52344-1.1719-1.1719s0.52344-1.1719 1.1719-1.1719h34.75c0.64844 0 1.1719 0.52344 1.1719 1.1719z"/>
<text x="0.0" y="117.5" font-size="5.0" font-weight="bold" font-family="Arbeit Regular, Helvetica, Arial-Unicode, Arial, Sans-serif" fill="#000000">Created by Andi Nur Abdillah</text><text x="0.0" y="122.5" font-size="5.0" font-weight="bold" font-family="Arbeit Regular, Helvetica, Arial-Unicode, Arial, Sans-serif" fill="#000000">from Noun Project</text></svg>