<svg xmlns:x="http://ns.adobe.com/Extensibility/1.0/" xmlns:i="http://ns.adobe.com/AdobeIllustrator/10.0/" xmlns:graph="http://ns.adobe.com/Graphs/1.0/" xmlns="http://www.w3.org/2000/svg" xmlns:xlink="http://www.w3.org/1999/xlink" version="1.1" x="0px" y="0px" viewBox="0 0 100 125" enable-background="new 0 0 100 100" xml:space="preserve"><switch><foreignObject requiredExtensions="http://ns.adobe.com/AdobeIllustrator/10.0/" x="0" y="0" width="1" height="1"/><g i:extraneous="self"><g><path d="M85.101,9.841c-2.292-2.073-6.01-4.593-10.716-4.825c-2.455-0.101-4.714,0.597-6.328,1.944     c-0.069,0.049-0.133,0.104-0.193,0.164L6.921,67.994l0,0c-0.104,0.104-0.167,0.232-0.238,0.357     c-1.097,1.366-1.732,3.138-1.816,5.126c-0.063,4.299,1.856,7.933,3.768,10.959c4.427,6.604,10.933,11.256,17.846,12.766     c0.084,0.019,0.167,0.017,0.25,0.022c0.038,0.001,0.073,0.01,0.11,0.009c0.184-0.002,0.361-0.035,0.529-0.094     c0.037-0.012,0.069-0.031,0.104-0.046c0.159-0.068,0.306-0.159,0.436-0.274c0.012-0.012,0.029-0.015,0.042-0.027     c6.757-6.381,13.462-13.019,19.949-19.438c3.509-3.474,7.02-6.948,10.552-10.398c0.005-0.005,0.01-0.009,0.014-0.013     c0.004-0.005,0.01-0.009,0.014-0.014c3.429-3.511,6.883-7,10.336-10.489c6.439-6.505,13.097-13.233,19.499-20.011     c0.014-0.015,0.019-0.036,0.033-0.052c0.107-0.123,0.193-0.263,0.261-0.417c0.022-0.05,0.042-0.098,0.059-0.15     c0.014-0.043,0.038-0.08,0.049-0.125c0.015-0.066,0-0.13,0.007-0.195c0.012-0.11,0.021-0.217,0.012-0.327     c-0.009-0.104-0.034-0.2-0.061-0.298c-0.029-0.1-0.059-0.193-0.105-0.285c-0.049-0.1-0.112-0.185-0.182-0.271     c-0.04-0.051-0.059-0.112-0.106-0.159c-0.027-0.027-0.063-0.037-0.091-0.061c-0.081-0.072-0.17-0.123-0.265-0.178     c-0.095-0.054-0.188-0.105-0.291-0.14c-0.037-0.012-0.063-0.039-0.1-0.049c-1.495-0.388-3.009-0.996-4.521-1.799l0.551-0.565     c1.608-1.645,3.214-3.288,4.797-4.96l0,0c0.003-0.003,0.006-0.006,0.009-0.01c0.008-0.007,0.016-0.015,0.022-0.022     c0,0,0,0,0.001,0l0.752-0.776c0.011-0.011,0.024-0.022,0.029-0.028c0.05-0.051,0.158-0.163,0.237-0.26     c0.578-0.683,1.917-2.576,1.726-5.319C90.833,15.557,87.549,12.078,85.101,9.841z M87.264,20.563     c0.244,1.192-0.028,2.317-0.426,2.713v0l-0.84,0.813l0,0.001c0,0.001,0,0.001,0,0.001c-1.73,1.64-3.435,3.306-5.137,4.972     l-1.918,1.873c-0.006,0.006-0.012,0.011-0.017,0.016c-0.007,0.007-0.008,0.017-0.014,0.023c-0.01,0.009-0.024,0.014-0.035,0.023     l-0.192,0.184c-0.005,0.004-0.007,0.01-0.012,0.014c-0.002,0.002-0.006,0.004-0.009,0.006     c-4.062,3.956-8.103,7.933-12.142,11.909c-3.38,3.327-6.758,6.653-10.177,9.993c-3.45,3.533-6.924,7.043-10.397,10.553     c-5.051,5.103-10.232,10.345-15.322,15.637c-0.829-3.262-2.816-6.411-5.821-9.156c-2.073-1.875-5.32-4.098-9.401-4.682     c8.221-8.241,24.104-24.16,36.771-36.826C66.843,13.961,70.35,10.501,70.672,10.212c0.858-0.689,2.106-1.024,3.557-0.943     c2.698,0.088,5.592,1.377,8.145,3.624C84.213,14.521,86.555,17.172,87.264,20.563z M65.992,53.618     c-3.489,3.453-6.979,6.906-10.517,10.363c-3.439,3.523-6.904,7.022-10.368,10.522c-6.192,6.257-12.583,12.721-18.759,19.235     c-2.631-0.82-5.237-2.214-7.762-4.211c-2.681-2.099-4.925-4.535-6.654-7.218c-2.095-3.387-3.069-6.234-2.979-8.665     c0.07-1.144,0.452-2.121,1.066-2.789c0.059-0.062,0.147-0.149,0.258-0.26c0.033-0.029,0.061-0.058,0.097-0.086     c0.858-0.689,2.107-1.025,3.558-0.943c1.744,0.057,3.561,0.663,5.322,1.655c-1.809,1.873-3.62,3.743-5.407,5.636     c-0.05,0.051-0.069,0.12-0.112,0.177c-0.064,0.088-0.125,0.173-0.17,0.272c-0.044,0.097-0.069,0.195-0.094,0.297     c-0.024,0.098-0.046,0.192-0.052,0.294c-0.005,0.113,0.011,0.22,0.029,0.333c0.011,0.067-0.002,0.136,0.018,0.204     c0.015,0.055,0.041,0.108,0.059,0.163c0.001,0.004,0.002,0.008,0.004,0.012c1.152,3.761,4.089,6.911,7.976,8.472     c2.555,0.879,4.869,0.769,6.682-0.313c0.852-0.499,1.521-1.255,1.996-2.152c6.303-5.99,12.559-12.17,18.617-18.167     c3.5-3.463,6.999-6.927,10.522-10.368c0.004-0.004,0.009-0.009,0.013-0.014c0.004-0.004,0.01-0.009,0.014-0.014     c3.298-3.375,6.608-6.737,9.917-10.1c3.731-3.792,7.46-7.584,11.174-11.394c1.155,0.601,2.325,1.107,3.505,1.52     C77.866,41.876,71.838,47.831,65.992,53.618z M22.237,73.339c1.813,1.637,4.04,4.226,4.73,7.521     c0.194,0.951-0.002,1.919-0.491,2.407c-0.078,0.077-0.164,0.145-0.289,0.22c-0.776,0.489-2.051,0.501-3.463,0.046     c-2.529-0.882-4.656-2.806-5.756-5.139C18.734,76.718,20.489,75.031,22.237,73.339z"/></g></g></switch><text x="0" y="115" fill="#000000" font-size="5px" font-weight="bold" font-family="'Helvetica Neue', Helvetica, Arial-Unicode, Arial, Sans-serif">Created by JMA</text><text x="0" y="120" fill="#000000" font-size="5px" font-weight="bold" font-family="'Helvetica Neue', Helvetica, Arial-Unicode, Arial, Sans-serif">from the Noun Project</text></svg>